<svg width="74" height="102" viewBox="0 0 74 102" fill="none" xmlns="http://www.w3.org/2000/svg">
<g clip-path="url(#clip0_5_174)">
<path d="M39.11 48.92C38.09 41.83 40.43 34.15 45.53 27.83C50.63 21.52 57.65 17.61 64.79 17.11L68 16.89L68.46 20.07C69.48 27.16 67.14 34.85 62.04 41.16C56.94 47.47 49.92 51.38 42.78 51.88L39.58 52.1L39.12 48.92H39.11Z" fill="#98BF18"/>
<path d="M65.03 20.56C65.87 26.42 63.97 33.26 59.34 38.99C54.72 44.72 48.43 48.02 42.53 48.43C41.69 42.57 43.59 35.73 48.22 30C52.84 24.27 59.13 20.97 65.03 20.56ZM70.95 13.22L64.54 13.67C60.59 13.95 56.53 15.18 52.8 17.24C49.01 19.33 45.66 22.16 42.83 25.67C40 29.17 37.94 33.05 36.7 37.19C35.47 41.27 35.12 45.5 35.68 49.42L36.59 55.78L43 55.33C46.95 55.05 51.01 53.82 54.74 51.76C58.53 49.67 61.88 46.84 64.71 43.33C67.54 39.83 69.6 35.95 70.84 31.81C72.07 27.73 72.42 23.5 71.86 19.58L70.95 13.22Z" fill="#091A3E"/>
<path d="M21.85 50.05C18.07 48.4 14.54 45.83 11.63 42.63C6.17005 36.62 3.39005 29.09 3.99005 21.95L4.26005 18.75L7.47005 18.79C10.68 18.83 13.92 19.55 17.1 20.95C20.88 22.6 24.41 25.17 27.32 28.37C32.78 34.38 35.56 41.91 34.96 49.05L34.69 52.25L31.48 52.21C28.27 52.17 25.03 51.45 21.85 50.05Z" fill="#62A54D"/>
<path d="M15.7201 24.1C18.9601 25.52 22.0901 27.73 24.7701 30.68C29.7201 36.13 32.0201 42.85 31.5201 48.74C28.8101 48.71 25.9801 48.08 23.2301 46.87C19.9901 45.45 16.8601 43.24 14.1801 40.29C9.23006 34.84 6.93006 28.12 7.43006 22.23C10.1401 22.26 12.9701 22.89 15.7201 24.1ZM18.4901 17.77C14.8801 16.19 11.1801 15.37 7.51006 15.32L1.08006 15.25L0.540059 21.65C0.210059 25.59 0.800059 29.79 2.27006 33.8C3.75006 37.86 6.04006 41.61 9.07006 44.94C12.3101 48.5 16.2401 51.36 20.4601 53.2C24.0701 54.78 27.7701 55.6 31.4401 55.65L37.8701 55.72L38.4101 49.32C38.7401 45.38 38.1501 41.18 36.6801 37.17C35.2001 33.11 32.9101 29.36 29.8801 26.03C26.6401 22.47 22.7101 19.61 18.4901 17.77Z" fill="#005B26"/>
<path d="M39.11 48.92C38.09 41.83 40.43 34.15 45.53 27.83C50.63 21.52 57.65 17.61 64.79 17.11L68 16.89L68.46 20.07C69.48 27.16 67.14 34.85 62.04 41.16C56.94 47.47 49.92 51.38 42.78 51.88L39.58 52.1L39.12 48.92H39.11Z" fill="#62A54D"/>
<path d="M65.03 20.56C65.87 26.42 63.97 33.26 59.34 38.99C54.72 44.72 48.43 48.02 42.53 48.43C41.69 42.57 43.59 35.73 48.22 30C52.84 24.27 59.13 20.97 65.03 20.56ZM70.95 13.22L64.54 13.67C60.59 13.95 56.53 15.18 52.8 17.24C49.01 19.33 45.66 22.16 42.83 25.67C40 29.17 37.94 33.05 36.7 37.19C35.47 41.27 35.12 45.5 35.68 49.42L36.59 55.78L43 55.33C46.95 55.05 51.01 53.82 54.74 51.76C58.53 49.67 61.88 46.84 64.71 43.33C67.54 39.83 69.6 35.95 70.84 31.81C72.07 27.73 72.42 23.5 71.86 19.58L70.95 13.22Z" fill="#005B26"/>
<path d="M34.73 50.74C28.97 45.69 25.52 37.8 25.26 29.11C25.01 20.42 27.99 12.35 33.45 6.97002L35.74 4.71002L38.16 6.83002C43.92 11.88 47.37 19.77 47.63 28.46C47.88 37.15 44.9 45.22 39.44 50.6L37.15 52.86L34.73 50.74Z" fill="#9AC472"/>
<path d="M35.88 9.43C40.69 13.65 43.94 20.6 44.17 28.56C44.4 36.52 41.56 43.65 37.01 48.14C32.2 43.92 28.95 36.97 28.72 29.01C28.49 21.05 31.33 13.92 35.88 9.43ZM35.61 0L31.03 4.51C28.04 7.46 25.62 11.26 24.03 15.5C22.42 19.81 21.67 24.43 21.81 29.22C21.95 34.01 22.97 38.57 24.83 42.78C26.66 46.92 29.3 50.58 32.46 53.34L37.29 57.58L41.87 53.07C44.86 50.12 47.28 46.32 48.87 42.08C50.48 37.77 51.23 33.15 51.09 28.36C50.95 23.57 49.93 19.01 48.07 14.8C46.24 10.66 43.6 7 40.44 4.24L35.61 0Z" fill="#005B26"/>
<path d="M46.71 37.64C46.71 37.64 46.63 37.68 46.58 37.7C46.54 37.68 46.5 37.65 46.46 37.63H46.71V37.64Z" fill="#091A3E"/>
<path d="M31.39 97.08C29.46 96.24 27.8 94.9 26.56 93.22C25.16 93.07 23.8 92.72 22.5 92.15C17.88 90.13 14.81 85.81 14.35 80.89C9.28004 78.64 6.09004 73.62 6.21004 68.07C6.25004 66.34 6.61004 64.67 7.26004 63.1C4.75004 60.31 3.36004 56.64 3.45004 52.82C3.64004 44.62 10.46 38.1 18.66 38.29C20.61 38.33 22.5 38.75 24.27 39.53C25.58 40.1 26.8 40.86 27.89 41.78C30.55 39.75 33.85 38.64 37.26 38.72C39.21 38.76 41.1 39.18 42.87 39.96C44.18 40.53 45.4 41.29 46.49 42.21C49.15 40.18 52.45 39.07 55.86 39.15C57.81 39.19 59.71 39.61 61.48 40.39C67.03 42.82 70.53 48.3 70.39 54.36C70.3 58.18 68.75 61.78 66.11 64.45C66.69 66.04 66.98 67.74 66.94 69.46C66.81 75.08 63.29 79.93 58.23 81.9C57.81 84.94 56.38 87.74 54.13 89.89C51.76 92.16 48.72 93.47 45.48 93.66C43.17 96.52 39.67 98.17 35.92 98.09C34.35 98.05 32.83 97.72 31.4 97.09L31.39 97.08Z" fill="#E2007A"/>
<path d="M60.09 43.53C64.2 45.33 67.04 49.48 66.93 54.25C66.84 58.14 64.82 61.52 61.81 63.51C62.91 65.18 63.53 67.2 63.49 69.35C63.38 74.37 59.67 78.45 54.88 79.22C54.9 79.54 54.91 79.87 54.91 80.2C54.78 85.85 50.1 90.33 44.44 90.2C44.18 90.2 43.93 90.17 43.68 90.14C42.21 92.86 39.31 94.68 36 94.6C34.86 94.57 33.77 94.32 32.79 93.89C30.93 93.07 29.42 91.61 28.53 89.79C28.28 89.8 28.02 89.82 27.77 89.81C26.39 89.78 25.09 89.48 23.9 88.96C20.21 87.35 17.67 83.62 17.77 79.35C17.77 79.02 17.8 78.69 17.84 78.37C17.14 78.22 16.46 78.01 15.82 77.73C12.13 76.12 9.59001 72.4 9.69001 68.13C9.74001 65.98 10.45 63.99 11.63 62.37C8.71001 60.24 6.84001 56.77 6.93001 52.88C7.07001 46.58 12.3 41.58 18.6 41.72C20.13 41.75 21.58 42.09 22.9 42.67C24.89 43.54 26.58 44.96 27.78 46.74C29.92 43.88 33.35 42.06 37.18 42.15C38.71 42.18 40.16 42.52 41.48 43.1C43.47 43.97 45.16 45.39 46.36 47.17C48.5 44.31 51.93 42.49 55.76 42.58C57.3 42.61 58.75 42.95 60.08 43.53M62.86 37.2C60.67 36.24 58.33 35.73 55.93 35.67C52.63 35.6 49.4 36.42 46.58 38C45.84 37.54 45.06 37.13 44.25 36.77C42.06 35.81 39.73 35.3 37.33 35.24C34.03 35.17 30.8 35.99 27.98 37.57C27.24 37.11 26.46 36.7 25.65 36.34C23.46 35.38 21.13 34.87 18.73 34.81C8.64001 34.6 0.23001 42.64 1.01454e-05 52.74C-0.0899899 56.73 1.13001 60.59 3.38001 63.76C3.00001 65.12 2.79001 66.54 2.76001 67.98C2.68001 71.45 3.64001 74.81 5.52001 77.71C6.98001 79.95 8.92001 81.8 11.2 83.15C11.63 85.2 12.44 87.16 13.6 88.94C15.43 91.76 18.03 93.97 21.11 95.31C22.28 95.82 23.49 96.2 24.73 96.44C26.19 98.06 27.98 99.36 30 100.24C31.84 101.05 33.8 101.48 35.82 101.53C38.71 101.6 41.55 100.85 44.03 99.38C45.17 98.7 46.21 97.88 47.14 96.95C53.97 95.95 59.53 90.91 61.25 84.29C66.62 81.45 70.23 75.88 70.38 69.52C70.41 68.08 70.27 66.65 69.95 65.27C72.35 62.2 73.74 58.4 73.83 54.41C73.91 50.71 72.89 47.11 70.88 44.01C68.92 40.99 66.14 38.64 62.85 37.2H62.86Z" fill="#005B26"/>
<path d="M66.97 54.26C67.11 47.96 62.12 42.73 55.81 42.59C51.98 42.5 48.55 44.32 46.42 47.17C47.71 49.07 48.46 51.37 48.4 53.84C48.31 57.73 46.29 61.11 43.28 63.1C44.38 64.78 45 66.79 44.96 68.94C44.85 73.61 41.63 77.47 37.32 78.6C37.39 79.12 37.44 79.65 37.42 80.2C37.32 84.65 34.28 88.33 30.2 89.46C29.66 89.68 29.12 89.84 28.62 89.92C29.99 92.65 32.77 94.55 36.03 94.63C39.33 94.7 42.23 92.88 43.71 90.17C43.96 90.19 44.21 90.22 44.47 90.23C50.12 90.36 54.81 85.88 54.94 80.23C54.94 79.9 54.94 79.57 54.91 79.25C59.7 78.49 63.41 74.4 63.52 69.38C63.57 67.22 62.94 65.21 61.84 63.54C64.85 61.55 66.88 58.16 66.96 54.28L66.97 54.26ZM53.41 71.68C51.66 71.64 50.28 70.19 50.32 68.44C50.36 66.69 51.81 65.31 53.56 65.35C55.31 65.39 56.69 66.84 56.65 68.59C56.61 70.34 55.16 71.72 53.41 71.68ZM53.94 54.7C52.19 54.66 50.81 53.21 50.85 51.46C50.89 49.71 52.34 48.33 54.09 48.37C55.84 48.41 57.22 49.86 57.18 51.61C57.14 53.36 55.69 54.74 53.94 54.7Z" fill="#CC0073"/>
<path d="M37.27 69.43C37.27 69.43 35.01 74.08 29.78 75.5C17.58 78.83 13.83 68.84 13.83 68.84" fill="black"/>
<path d="M37.27 69.43C37.27 69.43 35.01 74.08 29.78 75.5C17.58 78.83 13.83 68.84 13.83 68.84" stroke="#F19FC1" stroke-width="4.25" stroke-linecap="round" stroke-linejoin="round"/>
<path d="M23.4775 54.8053C23.4406 52.9334 21.8932 51.4459 20.0213 51.4828C18.1494 51.5198 16.6619 53.0671 16.6988 54.939L16.7925 59.6881C16.8294 61.56 18.3768 63.0475 20.2487 63.0106C22.1206 62.9737 23.6081 61.4263 23.5712 59.5544L23.4775 54.8053Z" fill="#510B0A"/>
<path d="M33.9493 54.4989C33.9124 52.627 32.365 51.1395 30.4931 51.1764C28.6212 51.2134 27.1337 52.7607 27.1706 54.6326L27.2643 59.3817C27.3012 61.2536 28.8486 62.7411 30.7205 62.7042C32.5924 62.6673 34.0799 61.1199 34.043 59.248L33.9493 54.4989Z" fill="#510B0A"/>
<path d="M41.63 98.59C39.73 98.59 35.09 98.54 33.12 98.04C31.56 97.65 31.23 95.93 31.1 95.09C28.45 84.88 32.24 72.5 32.41 71.98C32.85 70.27 33.31 68.94 33.82 67.9C34.64 65.46 38.2 59 41.08 57.53C41.34 57.36 41.65 57.25 41.97 57.21C42.67 57.13 43.43 57.09 44.16 57.09C45.56 57.09 47.52 57.24 48.88 57.98C48.93 58.01 48.99 58.04 49.04 58.08C49.29 58.22 49.52 58.4 49.72 58.61C50 58.88 50.23 59.2 50.41 59.55C50.76 60.18 50.97 60.84 51.1 61.36C51.33 61.87 51.43 62.42 51.38 62.96C51.48 63.23 51.55 63.51 51.58 63.79C52.52 64.61 52.75 65.69 52.62 66.51C52.43 67.68 51.55 68.66 50.48 68.87C48.89 69.19 48.42 69.55 47.96 69.9C47.61 70.16 47.18 70.49 46.55 70.73C45.52 71.11 44.33 71.34 43.36 71.48C43.23 71.57 43.11 71.65 42.99 71.72C42.8 72.88 42.61 74.19 42.85 75.92C43.08 77.57 43.36 79.36 43.64 81.02C44.16 80.85 44.73 80.73 45.35 80.68C46.16 76.78 48.54 70.77 55.44 68.98C56.64 68.67 57.84 68.51 58.99 68.51C62.28 68.51 65.25 69.77 67.58 72.17C70.37 75.04 71.96 79.3 71.83 83.56C71.69 88.64 69.34 95.11 58.99 97.13C54.37 98.19 46.98 98.57 41.62 98.57L41.63 98.59Z" fill="#E2007A"/>
<path d="M44.1599 59.21C45.5999 59.21 47.0299 59.39 47.8599 59.84C47.8899 59.85 47.8999 59.87 47.9199 59.89C48.0199 59.94 48.1199 60.01 48.2199 60.11C48.3599 60.24 48.4599 60.39 48.5299 60.54C48.7799 60.98 48.9799 61.56 49.0899 62.1C49.2799 62.4 49.2999 62.71 49.2299 62.98C49.2599 63.16 49.2899 63.34 49.3099 63.54C49.5099 63.88 49.5099 64.24 49.3899 64.51C49.3899 64.66 49.3899 64.81 49.3899 64.97C49.5399 65.02 49.7099 65.1 49.8899 65.2C51.0199 65.84 50.3699 66.73 50.0599 66.8C46.9899 67.41 46.8499 68.36 45.7999 68.75C44.7299 69.15 43.3899 69.36 42.5099 69.46C41.8899 69.99 41.3799 70.2 41.0599 70.29C40.8699 71.67 40.3599 73.55 40.7299 76.23C41.1399 79.16 41.7099 82.54 42.1199 84.88C42.3099 84.47 43.2699 82.81 45.9099 82.81C46.2799 82.81 46.6899 82.84 47.1299 82.92C47.4499 80.07 48.9599 72.88 55.9599 71.07C57.0199 70.8 58.0299 70.67 58.9799 70.67C65.9099 70.67 69.8699 77.42 69.6999 83.54C69.4899 90.98 64.3899 93.95 58.5799 95.08C54.2199 96.08 47.1999 96.48 41.6199 96.48C37.9099 96.48 34.8399 96.3 33.6299 96C33.4799 95.96 33.2999 95.45 33.1799 94.68C30.5999 84.92 34.4299 72.63 34.4299 72.63C34.8799 70.9 35.3299 69.63 35.7899 68.73C36.6299 65.92 40.6799 59.65 42.2199 59.37V59.34C42.8099 59.27 43.4799 59.23 44.1499 59.23M44.1599 54.96C43.3499 54.96 42.5099 55.01 41.7299 55.1C41.2699 55.15 40.8299 55.28 40.4299 55.47C39.1199 56 37.5199 57.28 35.2199 60.72C34.6299 61.6 32.7099 64.57 31.8499 67.12C31.3099 68.25 30.8299 69.64 30.3499 71.46C29.9399 72.81 26.3599 85.16 29.0199 95.55C29.4599 98.1 30.6699 99.63 32.5999 100.12C34.6099 100.62 38.6199 100.73 41.6199 100.73C44.2599 100.73 53.3399 100.62 59.4599 99.23C71.7499 96.8 73.8099 88.43 73.9499 83.65C74.0899 78.82 72.2699 73.98 69.0899 70.71C66.3599 67.9 62.8599 66.41 58.9799 66.41C57.6499 66.41 56.2799 66.59 54.8999 66.95C54.8299 66.97 54.7599 66.99 54.6899 67C54.6899 66.95 54.7099 66.91 54.7099 66.86C54.9499 65.35 54.5099 63.89 53.5299 62.76C53.5299 62.73 53.5199 62.7 53.5099 62.68C53.5099 62 53.3699 61.32 53.1099 60.68C52.9499 60.06 52.6899 59.3 52.2799 58.56C51.9999 58.01 51.6399 57.52 51.1999 57.09C50.8799 56.77 50.5299 56.49 50.1399 56.27C50.0499 56.21 49.9599 56.16 49.8599 56.11C48.4699 55.35 46.5399 54.96 44.1299 54.96H44.1599ZM44.8999 73.38C45.3599 73.29 45.7999 73.19 46.2199 73.07C45.7399 73.77 45.2999 74.52 44.9099 75.32C44.8299 74.61 44.8499 73.97 44.9099 73.38H44.8999Z" fill="#005927"/>
</g>
<defs>
<clipPath id="clip0_5_174">
<rect width="73.96" height="101.53" fill="white"/>
</clipPath>
</defs>
</svg>
